<?xml version="1.0" standalone="no"?>
<!DOCTYPE svg PUBLIC "-//W3C//DTD SVG 20010904//EN"
 "http://www.w3.org/TR/2001/REC-SVG-20010904/DTD/svg10.dtd">
<svg version="1.0" xmlns="http://www.w3.org/2000/svg"
 width="75px" height="55px" viewBox="0 0 800.000000 800.000000"
 preserveAspectRatio="xMidYMid meet">

<g transform="translate(0.000000,800.000000) scale(0.100000,-0.100000)"
fill="#000000" stroke="none">
<path d="M0 4000 l0 -4000 4000 0 4000 0 0 4000 0 4000 -4000 0 -4000 0 0
-4000z m3870 1078 l-1 -1003 -192 -110 -192 -111 -5 368 -5 368 -75 -43 c-41
-24 -208 -120 -370 -213 -162 -94 -387 -224 -500 -289 -113 -64 -208 -120
-212 -124 -8 -8 7 -151 28 -256 20 -98 66 -244 104 -329 l28 -63 -170 -98
c-134 -77 -172 -95 -179 -84 -5 8 -23 48 -40 89 -190 450 -220 939 -85 1407
34 118 106 299 153 383 118 211 217 345 373 500 100 100 293 260 313 260 4 0
7 -111 7 -246 l0 -246 -89 -94 c-106 -112 -203 -253 -276 -401 -48 -98 -102
-242 -119 -317 l-7 -28 33 20 c34 20 530 306 885 511 l203 116 0 487 0 486 53
12 c72 15 214 39 262 43 22 2 48 4 58 5 16 2 17 -52 17 -1000z m460 976 c641
-98 1215 -514 1518 -1102 35 -67 62 -127 60 -132 -4 -13 -770 430 -842 488
-76 61 -162 119 -246 167 -74 42 -264 125 -285 125 -13 0 -15 -32 -15 -207 l1
-208 591 -340 c325 -187 635 -365 687 -396 53 -30 133 -77 178 -103 l82 -47 8
-67 c4 -37 8 -150 7 -252 -1 -282 -48 -515 -156 -777 -47 -116 -61 -135 -83
-114 -6 5 -111 67 -235 138 -290 167 -606 349 -985 568 -193 112 -210 121
-364 209 l-121 70 0 224 c0 209 1 224 17 217 17 -6 541 -306 708 -405 104 -61
733 -424 763 -439 13 -7 26 -10 29 -8 17 18 50 338 39 381 -4 15 -151 105
-533 326 -796 459 -872 503 -950 549 l-73 42 0 559 0 559 53 -5 c28 -3 95 -12
147 -20z m-241 -2253 c47 -27 329 -189 626 -361 297 -171 647 -373 777 -449
131 -75 238 -138 238 -141 0 -3 -30 -45 -67 -94 -138 -184 -336 -370 -531
-497 -106 -69 -318 -179 -350 -182 -10 0 -86 38 -170 86 -83 48 -156 87 -162
87 -6 0 -10 -51 -10 -139 0 -114 -3 -140 -15 -145 -52 -20 -268 -39 -430 -39
-250 1 -453 34 -674 110 -109 37 -263 106 -264 118 0 6 92 63 205 128 l205
118 86 -25 c105 -31 265 -55 372 -56 140 -2 125 -12 125 84 l0 84 -82 48 c-46
26 -227 130 -403 232 -176 102 -325 185 -331 185 -6 0 -163 -88 -350 -196
-186 -108 -346 -199 -355 -202 -11 -4 -34 13 -73 56 -57 62 -186 227 -186 238
0 3 129 81 288 172 880 510 1131 654 1168 675 23 13 90 52 150 88 60 35 113
65 118 65 4 1 47 -21 95 -48z"/>
<path d="M3817 3296 c-98 -57 -177 -107 -176 -112 3 -7 426 -254 1103 -644
l48 -28 52 30 c116 69 288 200 276 210 -7 6 -1120 648 -1123 648 -1 -1 -82
-47 -180 -104z"/>
</g>
</svg>
