<?xml version="1.0" standalone="no"?>
<!DOCTYPE svg PUBLIC "-//W3C//DTD SVG 20010904//EN"
 "http://www.w3.org/TR/2001/REC-SVG-20010904/DTD/svg10.dtd">
<svg version="1.0" xmlns="http://www.w3.org/2000/svg"
 width="170px" height="50px" viewBox="0 0 400.000000 240.000000"
 preserveAspectRatio="xMidYMid meet">

<g transform="translate(0.000000,240.000000) scale(0.100000,-0.100000)"
fill="#000000" stroke="none">
<path d="M1897 2041 l-98 -69 120 -84 c66 -45 120 -86 121 -90 0 -7 -225 -168
-235 -168 -4 0 -57 35 -118 78 -61 42 -116 80 -122 84 -13 8 -200 -116 -200
-132 0 -8 605 -437 630 -446 5 -2 54 27 108 65 l98 69 -120 84 c-66 45 -121
86 -121 90 0 7 226 168 237 168 3 0 57 -37 121 -82 64 -45 121 -81 128 -81 15
0 194 126 191 135 -2 7 -615 437 -632 444 -5 2 -54 -27 -108 -65z"/>
<path d="M415 1440 l180 -180 362 0 363 0 0 180 0 180 -542 0 -543 0 180 -180z"/>
<path d="M1350 1342 l0 -279 200 -133 c185 -123 200 -135 200 -163 l0 -29 -27
17 c-16 10 -100 68 -188 130 -88 61 -166 115 -172 119 -10 6 -13 -23 -13 -132
l0 -140 315 -220 315 -221 0 279 0 279 -197 133 c-173 116 -198 137 -201 162
-3 21 0 27 10 24 7 -3 97 -64 201 -136 l187 -131 0 142 -1 142 -301 210 c-165
116 -307 214 -314 218 -12 7 -14 -38 -14 -271z"/>
<path d="M2333 1403 l-312 -218 -1 -447 0 -448 115 82 115 81 0 168 0 167 80
56 c44 31 82 56 85 56 3 0 5 -74 5 -164 l0 -165 115 81 115 80 -2 167 -3 166
-53 6 c-29 4 -56 10 -59 13 -3 3 22 48 56 99 l61 94 -2 172 -3 172 -312 -218z
m87 -261 c0 -25 -11 -37 -86 -86 l-85 -57 3 33 c3 27 14 40 78 85 41 29 78 53
82 53 5 0 8 -13 8 -28z"/>
<path d="M2680 1440 l0 -180 363 0 362 0 180 180 180 180 -543 0 -542 0 0
-180z"/>
<path d="M730 1132 c0 -4 89 -96 198 -205 l197 -197 98 0 97 0 0 205 0 205
-295 0 c-162 0 -295 -3 -295 -8z"/>
<path d="M2680 935 l0 -205 98 0 97 0 198 198 c108 108 197 201 197 205 0 4
-133 7 -295 7 l-295 0 0 -205z"/>
</g>
</svg>
